<?xml version="1.0" encoding="UTF-8" standalone="no"?>
<svg
   xmlns:dc="http://purl.org/dc/elements/1.1/"
   xmlns:cc="http://creativecommons.org/ns#"
   xmlns:rdf="http://www.w3.org/1999/02/22-rdf-syntax-ns#"
   xmlns:svg="http://www.w3.org/2000/svg"
   xmlns="http://www.w3.org/2000/svg"
   xmlns:sodipodi="http://sodipodi.sourceforge.net/DTD/sodipodi-0.dtd"
   xmlns:inkscape="http://www.inkscape.org/namespaces/inkscape"
   width="300"
   height="300"
   viewBox="0 0 79.374998 79.375002"
   version="1.1"
   id="svg559"
   inkscape:version="1.0.1 (3bc2e813f5, 2020-09-07)"
   sodipodi:docname="404.svg">
  <defs
     id="defs553" />
  <sodipodi:namedview
     id="base"
     pagecolor="#ffffff"
     bordercolor="#666666"
     borderopacity="1.0"
     inkscape:pageopacity="0.0"
     inkscape:pageshadow="2"
     inkscape:zoom="1.0650576"
     inkscape:cx="99.119782"
     inkscape:cy="144.28557"
     inkscape:document-units="px"
     inkscape:current-layer="layer1"
     inkscape:document-rotation="0"
     showgrid="false"
     units="px" />
  <metadata
     id="metadata556">
    <rdf:RDF>
      <cc:Work
         rdf:about="">
        <dc:format>image/svg+xml</dc:format>
        <dc:type
           rdf:resource="http://purl.org/dc/dcmitype/StillImage" />
        <dc:title></dc:title>
      </cc:Work>
    </rdf:RDF>
  </metadata>
  <g
     inkscape:label="Layer 1"
     inkscape:groupmode="layer"
     id="layer1">
    <path
       d="m 72.116565,73.940009 c -0.0092,0 -0.01881,0 -0.02842,-3.14e-4 l -5.577852,-0.02296 -5.783403,-0.02466 c -1.874688,-0.0075 -3.395677,-0.78084 -3.38001,-1.718351 0.01567,-0.932497 1.546601,-1.689941 3.408424,-1.689941 0.0096,0 0.01921,0 0.02842,0 l 5.783823,0.02422 5.577852,0.0234 c 1.874604,0.0079 3.395759,0.78084 3.379885,1.718768 -0.01544,0.93208 -1.546641,1.689937 -3.408713,1.689937"
       style="fill:#8660cb;fill-opacity:1;fill-rule:nonzero;stroke:none;stroke-width:0.0417784"
       id="path146-9"
       inkscape:export-filename="/home/sagan/Área de Trabalho/medicamentos.png"
       inkscape:export-xdpi="188.47319"
       inkscape:export-ydpi="188.47319" />
    <path
       d="m 65.69103,69.933864 c -0.01089,1.321455 0.510113,2.527183 1.358636,3.419993 l -5.783405,-0.04846 c -1.874856,-0.01544 -3.395844,-1.562099 -3.380178,-3.43712 0.01567,-1.874605 1.562435,-3.395765 3.437002,-3.379472 l 5.783816,0.04805 c -0.863983,0.878181 -1.405013,2.075558 -1.415871,3.397012"
       style="fill:#fffdff;fill-opacity:1;fill-rule:nonzero;stroke:none;stroke-width:0.0417784"
       id="path148-2"
       inkscape:export-filename="/home/sagan/Área de Trabalho/medicamentos.png"
       inkscape:export-xdpi="188.47319"
       inkscape:export-ydpi="188.47319" />
    <path
       d="m 76.064637,70.020763 c -0.01588,1.874187 -1.562518,3.395342 -3.437122,3.379885 l -5.577849,-0.04679 c -0.848523,-0.89281 -1.369501,-2.098538 -1.358636,-3.419993 0.0109,-1.321454 0.551888,-2.518831 1.415871,-3.397012 l 5.577434,0.04679 c 1.875022,0.01544 3.395759,1.562096 3.380302,3.43712"
       style="fill:#fd7e14;fill-opacity:1;fill-rule:nonzero;stroke:none;stroke-width:0.0417784"
       id="path150-0"
       inkscape:export-filename="/home/sagan/Área de Trabalho/medicamentos.png"
       inkscape:export-xdpi="188.47319"
       inkscape:export-ydpi="188.47319" />
    <path
       d="m 40.373638,60.586127 c -5.124553,0 -9.669641,-1.22871 -12.545676,-3.130471 -1.615158,-1.067859 -2.733152,-2.615753 -3.137568,-4.339953 -0.06601,-0.281171 -0.08398,-0.442854 -0.08398,-0.442854 0,-4.370453 7.05932,-7.913691 15.767219,-7.913691 6.798625,0 12.592891,2.159533 14.806318,5.186388 0.909937,1.244583 1.072452,2.899853 0.468755,4.317812 l -0.01213,0.02924 c -0.521814,1.216585 -1.427157,2.293219 -2.608235,3.092029 -2.870602,1.941865 -7.466659,3.201488 -12.654722,3.201488"
       style="fill:#af83f8;fill-opacity:1;fill-rule:nonzero;stroke:none;stroke-width:0.0417784"
       id="path76-8"
       inkscape:export-filename="/home/sagan/Área de Trabalho/medicamentos.png"
       inkscape:export-xdpi="188.47319"
       inkscape:export-ydpi="188.47319" />
    <path
       d="m 56.67897,13.07557 c -0.492152,1.325215 -1.345688,2.498356 -2.459921,3.368598 -2.707667,2.11567 -7.042609,3.488095 -11.936128,3.488095 -4.833779,0 -9.120674,-1.339424 -11.833355,-3.410799 -1.523246,-1.163116 -2.577736,-2.849719 -2.959592,-4.728078 -0.06225,-0.305818 -0.07897,-0.482542 -0.07897,-0.482542 v 8.95439 c 0,0 0.947955,7.754519 14.871908,7.754519 13.687066,0 14.871904,-7.754519 14.871904,-7.754519 v -8.95439 c 0,0 -0.08606,0.716498 -0.475855,1.764726"
       style="fill:#c6c4c6;fill-opacity:1;fill-rule:nonzero;stroke:none;stroke-width:0.0417784"
       id="path78-9"
       inkscape:export-filename="/home/sagan/Área de Trabalho/medicamentos.png"
       inkscape:export-xdpi="188.47319"
       inkscape:export-ydpi="188.47319" />
    <path
       d="m 42.282921,19.932263 c 4.893519,0 9.228461,-1.372425 11.936128,-3.488095 1.114233,-0.870242 1.967769,-2.043383 2.459921,-3.368598 0.389794,-1.048228 0.475855,-1.764726 0.475855,-1.764726 0,-4.761082 -6.658661,-8.6210016 -14.871904,-8.6210016 -8.213663,0 -14.871908,3.8599196 -14.871908,8.6210016 0,0 0.01671,0.176724 0.07897,0.482542 0.381856,1.878359 1.436346,3.564962 2.959592,4.728078 2.712681,2.071375 6.999576,3.410799 11.833355,3.410799"
       style="fill:#d6d6d6;fill-opacity:1;fill-rule:nonzero;stroke:none;stroke-width:0.0417784"
       id="path80-7"
       inkscape:export-filename="/home/sagan/Área de Trabalho/medicamentos.png"
       inkscape:export-xdpi="188.47319"
       inkscape:export-ydpi="188.47319" />
    <path
       d="m 54.917167,11.310844 c 0,3.632644 -5.656813,6.576777 -12.634246,6.576777 -6.977435,0 -12.633832,-2.944133 -12.633832,-6.576777 0,-3.6322302 5.656397,-6.5767772 12.633832,-6.5767772 6.977433,0 12.634246,2.944547 12.634246,6.5767772"
       style="fill:#fffdff;fill-opacity:1;fill-rule:nonzero;stroke:none;stroke-width:0.0417784"
       id="path82-3"
       inkscape:export-filename="/home/sagan/Área de Trabalho/medicamentos.png"
       inkscape:export-xdpi="188.47319"
       inkscape:export-ydpi="188.47319" />
    <path
       d="m 42.282921,28.019753 c -8.496921,0 -12.157557,-2.886484 -13.723834,-5.137511 v 29.311412 c 0,3.945978 6.144371,7.144544 13.723834,7.144544 7.579461,0 13.72383,-3.198566 13.72383,-7.144544 V 22.790746 c -1.577976,2.263148 -5.258246,5.229007 -13.72383,5.229007"
       style="fill:#ff8200;fill-opacity:1;fill-rule:nonzero;stroke:none;stroke-width:0.0417784"
       id="path84-6"
       inkscape:export-filename="/home/sagan/Área de Trabalho/medicamentos.png"
       inkscape:export-xdpi="188.47319"
       inkscape:export-ydpi="188.47319" />
    <path
       d="m 48.159488,36.370864 c -1.783107,0.441181 -3.770513,0.695613 -5.876567,0.695613 -2.106059,0 -4.093462,-0.254432 -5.876572,-0.695613 -4.634911,-1.146821 -7.847262,-3.599637 -7.847262,-6.448938 v 12.897456 c 0,3.945565 6.144371,7.144131 13.723834,7.144131 7.579461,0 13.72383,-3.198566 13.72383,-7.144131 V 29.921926 c 0,2.849301 -3.212351,5.302117 -7.847263,6.448938"
       style="fill:#fffdff;fill-opacity:1;fill-rule:nonzero;stroke:none;stroke-width:0.0417784"
       id="path86-1"
       inkscape:export-filename="/home/sagan/Área de Trabalho/medicamentos.png"
       inkscape:export-xdpi="188.47319"
       inkscape:export-ydpi="188.47319" />
    <path
       d="m 14.210773,72.831941 c -1.401671,0 -2.772006,-0.478782 -3.536135,-1.338585 L 7.246708,67.637616 3.6926072,63.639829 C 2.5403551,62.343858 3.184163,60.653498 5.1231043,59.88352 c 0.652581,-0.259028 1.372008,-0.382274 2.083079,-0.382274 1.4016696,0 2.7720056,0.478783 3.5361357,1.338585 l 3.5541,3.997786 3.427929,3.855325 c 1.151834,1.296387 0.508445,2.986331 -1.430497,3.756309 -0.652163,0.259445 -1.37159,0.38269 -2.083078,0.38269"
       style="fill:#9d7ed5;fill-opacity:1;fill-rule:nonzero;stroke:none;stroke-width:0.0417784"
       id="path322-2"
       inkscape:export-filename="/home/sagan/Área de Trabalho/medicamentos.png"
       inkscape:export-xdpi="188.47319"
       inkscape:export-ydpi="188.47319" />
    <path
       d="M 9.9176098,64.557286 C 10.958731,63.743858 12.232977,63.422162 13.457505,63.552094 L 9.8963035,58.994471 C 8.7419624,57.517184 6.589114,57.253142 5.1118241,58.407483 3.6345351,59.561824 3.3704954,61.714674 4.5244185,63.191962 l 3.5616209,4.55762 C 8.2564955,66.529648 8.8760707,65.37113 9.9176098,64.557286"
       style="fill:#fffdff;fill-opacity:1;fill-rule:nonzero;stroke:none;stroke-width:0.0417784"
       id="path324-9"
       inkscape:export-filename="/home/sagan/Área de Trabalho/medicamentos.png"
       inkscape:export-xdpi="188.47319"
       inkscape:export-ydpi="188.47319" />
    <path
       d="m 16.305132,72.731256 c 1.477288,-1.153924 1.741329,-3.307191 0.586988,-4.784479 l -3.434615,-4.394683 c -1.224528,-0.129932 -2.498774,0.191764 -3.5398952,1.005192 -1.0415391,0.813844 -1.6611143,1.972362 -1.8315704,3.192296 l 3.4346146,4.394686 c 1.15434,1.477287 3.307605,1.741746 4.784478,0.586988"
       style="fill:#ff8200;fill-opacity:1;fill-rule:nonzero;stroke:none;stroke-width:0.0417784"
       id="path326-3"
       inkscape:export-filename="/home/sagan/Área de Trabalho/medicamentos.png"
       inkscape:export-xdpi="188.47319"
       inkscape:export-ydpi="188.47319" />
    <text
       xml:space="preserve"
       style="font-style:normal;font-weight:normal;font-size:49.5346px;line-height:1.25;font-family:sans-serif;fill:#20c997;fill-opacity:1;stroke:none;stroke-width:0.580482"
       x="9.6108027"
       y="57.621922"
       id="text609"><tspan
         sodipodi:role="line"
         id="tspan607"
         x="9.6108027"
         y="57.621922"
         style="font-style:normal;font-variant:normal;font-weight:normal;font-stretch:normal;font-size:49.5346px;font-family:'Bebas Neue';-inkscape-font-specification:'Bebas Neue';fill:#20c997;stroke-width:0.580482">404</tspan></text>
    <text
       xml:space="preserve"
       style="font-style:normal;font-weight:normal;font-size:19.4251px;line-height:1.25;font-family:sans-serif;fill:#20c997;fill-opacity:1;stroke:none;stroke-width:0.485627"
       x="25.228884"
       y="74.336922"
       id="text631"><tspan
         sodipodi:role="line"
         id="tspan629"
         x="25.228884"
         y="74.336922"
         style="font-style:normal;font-variant:normal;font-weight:normal;font-stretch:normal;font-family:'Bebas Neue';-inkscape-font-specification:'Bebas Neue';fill:#20c997;stroke-width:0.485627">ERRO</tspan></text>
  </g>
</svg>
