<?xml version="1.0" encoding="UTF-8" standalone="no"?>
<svg
   xmlns:dc="http://purl.org/dc/elements/1.1/"
   xmlns:cc="http://creativecommons.org/ns#"
   xmlns:rdf="http://www.w3.org/1999/02/22-rdf-syntax-ns#"
   xmlns:svg="http://www.w3.org/2000/svg"
   xmlns="http://www.w3.org/2000/svg"
   width="300"
   height="200"
   viewBox="0 0 79.374998 52.916668"
   version="1.1"
   id="svg1238">
  <defs
     id="defs1232" />
  <metadata
     id="metadata1235">
    <rdf:RDF>
      <cc:Work
         rdf:about="">
        <dc:format>image/svg+xml</dc:format>
        <dc:type
           rdf:resource="http://purl.org/dc/dcmitype/StillImage" />
        <dc:title></dc:title>
      </cc:Work>
    </rdf:RDF>
  </metadata>
  <g
     id="layer1">
    <g
       id="g1117"
       transform="matrix(0.49974852,0,0,-0.49974852,226.19072,424.08824)">
      <path
         d="m -352.58573,840.15325 -94.56551,-53.486 c -2.3735,-1.342 -3.8414,-3.859 -3.8414,-6.585 0,-2.6 1.3343,-5.017 3.5336,-6.402 l 34.7937,-21.91599 c 3.3219,-2.09201 7.1676,-3.20301 11.0934,-3.20301 3.8132,0 7.5535,1.048 10.8125,3.02901 l 91.7477,55.77999 c 4.703,2.859 4.408,9.78 -0.521,12.229 l -41.973,20.851 c -3.513,1.746 -7.664,1.634 -11.07999,-0.297"
         style="fill:#450ba5;fill-opacity:1;fill-rule:nonzero;stroke:none;stroke-width:0.0999997"
         id="path88-3" />
      <path
         d="m -352.58573,842.53225 -94.56551,-53.485 c -2.3735,-1.343 -3.8414,-3.86 -3.8414,-6.586 0,-2.6 1.3343,-5.017 3.5336,-6.403 l 34.7937,-21.916 c 3.3219,-2.091 7.1676,-3.202 11.0934,-3.202 3.8132,0 7.5535,1.048 10.8125,3.02901 l 91.7477,55.77999 c 4.703,2.859 4.408,9.78 -0.521,12.228 l -41.973,20.852 c -3.513,1.746 -7.664,1.634 -11.07999,-0.297"
         style="fill:#6f42c1;fill-opacity:1;fill-rule:nonzero;stroke:none;stroke-width:0.0999997"
         id="path90-6" />
      <path
         d="m -412.58334,790.63825 c 0,4.743 -5.7601,8.588 -12.8664,8.588 -7.1054,0 -12.8656,-3.845 -12.8656,-8.588 0,-0.648 0.116,-1.276 0.3191,-1.882 -0.2031,-0.607 -0.3191,-1.235 -0.3191,-1.882 0,-4.744 5.7602,-8.59 12.8656,-8.59 7.1063,0 12.8664,3.846 12.8664,8.59 0,0.647 -0.1164,1.275 -0.3199,1.882 0.2035,0.606 0.3199,1.234 0.3199,1.882"
         style="fill:#b0d3e6;fill-opacity:1;fill-rule:nonzero;stroke:none;stroke-width:0.0999997"
         id="path92-7" />
      <path
         d="m -412.58334,790.63825 c 0,-4.745 -5.7601,-8.59 -12.8664,-8.59 -7.1054,0 -12.8656,3.845 -12.8656,8.59 0,4.743 5.7602,8.588 12.8656,8.588 7.1063,0 12.8664,-3.845 12.8664,-8.588"
         style="fill:#fffdff;fill-opacity:1;fill-rule:nonzero;stroke:none;stroke-width:0.0999997"
         id="path94-5" />
      <path
         d="m -387.04734,805.18325 c 0,4.745 -5.7602,8.59 -12.8656,8.59 -7.1055,0 -12.8665,-3.845 -12.8665,-8.59 0,-0.647 0.1165,-1.275 0.32,-1.881 -0.2035,-0.606 -0.32,-1.235 -0.32,-1.881 0,-4.744 5.761,-8.59 12.8665,-8.59 7.1054,0 12.8656,3.846 12.8656,8.59 0,0.646 -0.116,1.275 -0.3192,1.881 0.2032,0.606 0.3192,1.234 0.3192,1.881"
         style="fill:#b0d3e6;fill-opacity:1;fill-rule:nonzero;stroke:none;stroke-width:0.0999997"
         id="path96-3" />
      <path
         d="m -387.04734,805.18325 c 0,-4.743 -5.7602,-8.588 -12.8656,-8.588 -7.1059,0 -12.8665,3.845 -12.8665,8.588 0,4.745 5.7606,8.59 12.8665,8.59 7.1054,0 12.8656,-3.845 12.8656,-8.59"
         style="fill:#fffdff;fill-opacity:1;fill-rule:nonzero;stroke:none;stroke-width:0.0999997"
         id="path98-5" />
      <path
         d="m -386.94974,805.18325 c 0,4.745 -5.7601,8.59 -12.8656,8.59 -7.1055,0 -12.866,-3.845 -12.866,-8.59 0,-0.647 0.116,-1.275 0.3195,-1.881 -0.2035,-0.606 -0.3195,-1.235 -0.3195,-1.881 0,-4.744 5.7605,-8.59 12.866,-8.59 7.1055,0 12.8656,3.846 12.8656,8.59 0,0.646 -0.116,1.275 -0.3191,1.881 0.2031,0.606 0.3191,1.234 0.3191,1.881"
         style="fill:#b0d3e6;fill-opacity:1;fill-rule:nonzero;stroke:none;stroke-width:0.0999997"
         id="path100-6" />
      <path
         d="m -386.94974,805.18325 c 0,-4.743 -5.7601,-8.588 -12.8656,-8.588 -7.1055,0 -12.866,3.845 -12.866,8.588 0,4.745 5.7605,8.59 12.866,8.59 7.1055,0 12.8656,-3.845 12.8656,-8.59"
         style="fill:#fffdff;fill-opacity:1;fill-rule:nonzero;stroke:none;stroke-width:0.0999997"
         id="path102-2" />
      <path
         d="m -361.41274,819.73025 c 0,4.744 -5.761,8.589 -12.86599,8.589 -7.10571,0 -12.86631,-3.845 -12.86631,-8.589 0,-0.647 0.1164,-1.275 0.3196,-1.881 -0.2032,-0.607 -0.3196,-1.235 -0.3196,-1.882 0,-4.743 5.7606,-8.589 12.86631,-8.589 7.10499,0 12.86599,3.846 12.86599,8.589 0,0.647 -0.11599,1.275 -0.31999,1.882 0.204,0.606 0.31999,1.234 0.31999,1.881"
         style="fill:#b0d3e6;fill-opacity:1;fill-rule:nonzero;stroke:none;stroke-width:0.0999997"
         id="path104-9" />
      <path
         d="m -361.41274,819.73025 c 0,-4.744 -5.761,-8.589 -12.86599,-8.589 -7.10571,0 -12.86631,3.845 -12.86631,8.589 0,4.744 5.7606,8.589 12.86631,8.589 7.10499,0 12.86599,-3.845 12.86599,-8.589"
         style="fill:#fffdff;fill-opacity:1;fill-rule:nonzero;stroke:none;stroke-width:0.0999997"
         id="path106-1" />
      <path
         d="m -335.77874,834.77025 c 0,4.744 -5.76,8.589 -12.866,8.589 -7.10599,0 -12.86599,-3.845 -12.86599,-8.589 0,-0.647 0.11599,-1.275 0.31899,-1.881 -0.203,-0.607 -0.31899,-1.235 -0.31899,-1.882 0,-4.744 5.76,-8.59 12.86599,-8.59 7.106,0 12.866,3.846 12.866,8.59 0,0.647 -0.116,1.275 -0.32,1.882 0.204,0.606 0.32,1.234 0.32,1.881"
         style="fill:#b0d3e6;fill-opacity:1;fill-rule:nonzero;stroke:none;stroke-width:0.0999997"
         id="path108-2" />
      <path
         d="m -335.77874,834.77025 c 0,-4.744 -5.76,-8.589 -12.866,-8.589 -7.10599,0 -12.86599,3.845 -12.86599,8.589 0,4.744 5.76,8.589 12.86599,8.589 7.106,0 12.866,-3.845 12.866,-8.589"
         style="fill:#fffdff;fill-opacity:1;fill-rule:nonzero;stroke:none;stroke-width:0.0999997"
         id="path110-7" />
      <path
         d="m -381.24384,774.61925 c 0,4.744 -5.7606,8.59 -12.866,8.59 -7.1055,0 -12.8656,-3.846 -12.8656,-8.59 0,-0.647 0.1164,-1.275 0.3195,-1.88199 -0.2031,-0.606 -0.3195,-1.23401 -0.3195,-1.88201 0,-4.743 5.7601,-8.589 12.8656,-8.589 7.1054,0 12.866,3.846 12.866,8.589 0,0.648 -0.116,1.27601 -0.3195,1.88201 0.2035,0.60699 0.3195,1.23499 0.3195,1.88199"
         style="fill:#b0d3e6;fill-opacity:1;fill-rule:nonzero;stroke:none;stroke-width:0.0999997"
         id="path112-0" />
      <path
         d="m -381.24384,774.61925 c 0,-4.74399 -5.7606,-8.58999 -12.866,-8.58999 -7.1055,0 -12.8656,3.846 -12.8656,8.58999 0,4.744 5.7601,8.59 12.8656,8.59 7.1054,0 12.866,-3.846 12.866,-8.59"
         style="fill:#fffdff;fill-opacity:1;fill-rule:nonzero;stroke:none;stroke-width:0.0999997"
         id="path114-9" />
      <path
         d="m -355.70774,789.16625 c 0,4.743 -5.76,8.589 -12.86499,8.589 -7.10631,0 -12.86641,-3.846 -12.86641,-8.589 0,-0.648 0.116,-1.275 0.3191,-1.882 -0.2031,-0.606 -0.3191,-1.234 -0.3191,-1.882 0,-4.744 5.7601,-8.59 12.86641,-8.59 7.10499,0 12.86499,3.846 12.86499,8.59 0,0.648 -0.116,1.276 -0.31899,1.882 0.20299,0.607 0.31899,1.234 0.31899,1.882"
         style="fill:#b0d3e6;fill-opacity:1;fill-rule:nonzero;stroke:none;stroke-width:0.0999997"
         id="path116-3" />
      <path
         d="m -355.70774,789.16625 c 0,-4.744 -5.76,-8.59 -12.86499,-8.59 -7.10631,0 -12.86641,3.846 -12.86641,8.59 0,4.743 5.7601,8.589 12.86641,8.589 7.10499,0 12.86499,-3.846 12.86499,-8.589"
         style="fill:#fffdff;fill-opacity:1;fill-rule:nonzero;stroke:none;stroke-width:0.0999997"
         id="path118-6" />
      <path
         d="m -355.60973,789.16625 c 0,4.743 -5.76,8.589 -12.86601,8.589 -7.1052,0 -12.8662,-3.846 -12.8662,-8.589 0,-0.648 0.1165,-1.275 0.3196,-1.882 -0.2031,-0.606 -0.3196,-1.234 -0.3196,-1.882 0,-4.744 5.761,-8.59 12.8662,-8.59 7.10601,0 12.86601,3.846 12.86601,8.59 0,0.648 -0.11601,1.276 -0.31901,1.882 0.203,0.607 0.31901,1.234 0.31901,1.882"
         style="fill:#b0d3e6;fill-opacity:1;fill-rule:nonzero;stroke:none;stroke-width:0.0999997"
         id="path120-0" />
      <path
         d="m -355.60973,789.16625 c 0,-4.744 -5.76,-8.59 -12.86601,-8.59 -7.10559,0 -12.8662,3.846 -12.8662,8.59 0,4.743 5.76061,8.589 12.8662,8.589 7.10601,0 12.86601,-3.846 12.86601,-8.589"
         style="fill:#fffdff;fill-opacity:1;fill-rule:nonzero;stroke:none;stroke-width:0.0999997"
         id="path122-6" />
      <path
         d="m -330.07274,803.71225 c 0,4.744 -5.761,8.59 -12.867,8.59 -7.105,0 -12.86499,-3.846 -12.86499,-8.59 0,-0.647 0.11599,-1.276 0.31899,-1.881 -0.203,-0.607 -0.31899,-1.235 -0.31899,-1.882 0,-4.744 5.75999,-8.59 12.86499,-8.59 7.106,0 12.867,3.846 12.867,8.59 0,0.647 -0.117,1.275 -0.32,1.882 0.203,0.605 0.32,1.234 0.32,1.881"
         style="fill:#b0d3e6;fill-opacity:1;fill-rule:nonzero;stroke:none;stroke-width:0.0999997"
         id="path124-2" />
      <path
         d="m -330.07274,803.71225 c 0,-4.743 -5.761,-8.589 -12.867,-8.589 -7.105,0 -12.86499,3.846 -12.86499,8.589 0,4.744 5.75999,8.59 12.86499,8.59 7.106,0 12.867,-3.846 12.867,-8.59"
         style="fill:#fffdff;fill-opacity:1;fill-rule:nonzero;stroke:none;stroke-width:0.0999997"
         id="path126-6" />
      <path
         d="m -304.43974,818.75225 c 0,4.744 -5.76,8.59 -12.865,8.59 -7.106,0 -12.866,-3.846 -12.866,-8.59 0,-0.648 0.116,-1.276 0.319,-1.882 -0.203,-0.606 -0.319,-1.234 -0.319,-1.882 0,-4.743 5.76,-8.589 12.866,-8.589 7.105,0 12.865,3.846 12.865,8.589 0,0.648 -0.116,1.276 -0.319,1.882 0.203,0.606 0.319,1.234 0.319,1.882"
         style="fill:#b0d3e6;fill-opacity:1;fill-rule:nonzero;stroke:none;stroke-width:0.0999997"
         id="path128-1" />
      <path
         d="m -304.43974,818.75225 c 0,-4.744 -5.76,-8.589 -12.865,-8.589 -7.106,0 -12.866,3.845 -12.866,8.589 0,4.744 5.76,8.59 12.866,8.59 7.105,0 12.865,-3.846 12.865,-8.59"
         style="fill:#fffdff;fill-opacity:1;fill-rule:nonzero;stroke:none;stroke-width:0.0999997"
         id="path130-8" />
      <path
         d="m -430.44814,766.09925 108.8944,65.321 c 0.236,0.142 0.313,0.449 0.171,0.686 -0.142,0.237 -0.449,0.313 -0.686,0.171 l -108.8939,-65.32 c -0.2367,-0.14199 -0.3136,-0.449 -0.1714,-0.686 0.1418,-0.237 0.4492,-0.31399 0.6859,-0.172"
         style="fill:#35087e;fill-opacity:1;fill-rule:nonzero;stroke:none;stroke-width:0.0999997"
         id="path132-7" />
    </g>
    <g
       id="g1175"
       transform="matrix(0.22823324,0,0,-0.22823324,182.24243,231.38275)">
      <circle
         style="fill:none;stroke:#20c997;stroke-width:6.75;stroke-linecap:round;stroke-linejoin:round;stroke-miterlimit:4;stroke-dasharray:none;paint-order:markers fill stroke"
         id="path1119"
         cx="-539.37939"
         cy="-847.42883"
         r="40.003464"
         transform="scale(1,-1)" />
      <g
         id="g1169"
         style="fill:#20c997;stroke:#20c997">
        <path
           style="fill:#20c997;stroke:#20c997;stroke-width:7.65;stroke-linecap:round;stroke-linejoin:miter;stroke-miterlimit:4;stroke-dasharray:none;stroke-opacity:1"
           d="M -538.60213,874.4709 V 832.34909"
           id="path1146" />
        <circle
           id="circle1165"
           style="fill:#20c997;stroke:#20c997;stroke-width:2.55;stroke-linecap:round;stroke-miterlimit:4;stroke-dasharray:none;paint-order:stroke markers fill"
           cx="-538.60883"
           cy="-820.36011"
           transform="scale(1,-1)"
           r="2.9733512" />
      </g>
    </g>
  </g>
</svg>
